<svg width="79" height="79" viewBox="0 0 79 79" fill="none" xmlns="http://www.w3.org/2000/svg">
<path d="M37.9327 72.3265C38.5022 72.76 39.1983 72.9948 39.9142 72.9948C40.63 72.9948 41.3261 72.76 41.8957 72.3265C47.974 67.7651 65.9376 52.8691 65.9376 35.8801V17.5528C65.9415 17.08 65.7699 16.6227 65.4561 16.269C65.1423 15.9154 64.7085 15.6907 64.2387 15.6383C56.7947 14.8759 49.6603 12.2609 43.4868 8.03227L41.219 6.48207C40.835 6.21833 40.38 6.07715 39.9142 6.07715C39.4483 6.07715 38.9933 6.21833 38.6093 6.48207L36.3415 8.03227C30.1681 12.2609 23.0336 14.8759 15.5896 15.6383C15.1198 15.6907 14.686 15.9154 14.3722 16.269C14.0584 16.6227 13.8869 17.08 13.8907 17.5528V35.8801C13.8907 52.8691 31.8543 67.7651 37.9327 72.319" stroke="#A89165" stroke-width="7" stroke-linecap="round" stroke-linejoin="round"/>
</svg>
