<svg width="76" height="76" viewBox="0 0 76 76" fill="none" xmlns="http://www.w3.org/2000/svg">
<path d="M37.9987 50.6663C50.241 50.6663 60.1654 40.742 60.1654 28.4997C60.1654 16.2574 50.241 6.33301 37.9987 6.33301C25.7564 6.33301 15.832 16.2574 15.832 28.4997C15.832 40.742 25.7564 50.6663 37.9987 50.6663Z" stroke="#A89165" stroke-width="7"/>
<path d="M23.2777 47.4995L21.2605 54.8557C19.2719 62.1137 18.2775 65.7427 19.6044 67.7282C20.0699 68.4248 20.6937 68.9822 21.4189 69.3527C23.4835 70.404 26.6755 68.7415 33.0564 65.4165C35.178 64.3082 36.242 63.7572 37.3694 63.6368C37.7884 63.5949 38.2106 63.5949 38.6297 63.6368C39.757 63.7572 40.8179 64.3113 42.9427 65.4165C49.3235 68.7415 52.5155 70.404 54.5802 69.3527C55.3054 68.9822 55.9292 68.4248 56.3947 67.7282C57.7247 65.7427 56.7272 62.1137 54.7385 54.8557L52.7214 47.4995" stroke="#A89165" stroke-width="7" stroke-linecap="round"/>
</svg>
