<svg width="62" height="62" viewBox="0 0 62 62" fill="none" xmlns="http://www.w3.org/2000/svg">
<path d="M40 37L31 31V16M4 31C4 34.5457 4.69838 38.0567 6.05525 41.3325C7.41213 44.6082 9.40093 47.5847 11.9081 50.0919C14.4153 52.5991 17.3918 54.5879 20.6675 55.9447C23.9433 57.3016 27.4543 58 31 58C34.5457 58 38.0567 57.3016 41.3325 55.9447C44.6082 54.5879 47.5847 52.5991 50.0919 50.0919C52.5991 47.5847 54.5879 44.6082 55.9447 41.3325C57.3016 38.0567 58 34.5457 58 31C58 27.4543 57.3016 23.9433 55.9447 20.6675C54.5879 17.3918 52.5991 14.4153 50.0919 11.9081C47.5847 9.40094 44.6082 7.41213 41.3325 6.05525C38.0567 4.69838 34.5457 4 31 4C27.4543 4 23.9433 4.69838 20.6675 6.05525C17.3918 7.41213 14.4153 9.40094 11.9081 11.9081C9.40093 14.4153 7.41213 17.3918 6.05525 20.6675C4.69838 23.9433 4 27.4543 4 31Z" stroke="#A89165" stroke-width="7" stroke-linecap="round" stroke-linejoin="round"/>
</svg>
