<svg width="108" height="108" viewBox="0 0 108 108" fill="none" xmlns="http://www.w3.org/2000/svg">
<path d="M99.7219 60.9838H34.5416V39.4622C34.5302 38.076 34.8955 36.7129 35.5981 35.5197C36.3007 34.3264 37.3141 33.3481 38.5291 32.69C39.8755 31.9606 41.4084 31.6522 42.9307 31.8045C42.1553 34.1604 42.0447 36.6859 42.6112 39.101C43.1776 41.5162 44.399 43.7266 46.1399 45.4875L50.2041 49.5685C50.5601 49.9264 50.983 50.2104 51.4485 50.4042C51.9139 50.5979 52.4128 50.6976 52.9167 50.6976C53.4206 50.6976 53.9195 50.5979 54.385 50.4042C54.8504 50.2104 55.2733 49.9264 55.6294 49.5685L69.183 35.9587C69.9018 35.2367 70.3056 34.2576 70.3056 33.2367C70.3056 32.2158 69.9018 31.2368 69.183 30.5148L65.1188 26.4338C62.8558 24.1708 59.8621 22.7942 56.6774 22.5521C53.4928 22.31 50.3268 23.2182 47.7502 25.1132C45.4274 24.2017 42.9181 23.874 40.4404 24.1585C37.9627 24.4429 35.5918 25.331 33.5339 26.7455C31.476 28.1599 29.7934 30.0578 28.6326 32.2742C27.4718 34.4905 26.8678 36.9581 26.8733 39.4622V60.9838H23.0392C22.0223 60.9838 21.0471 61.3894 20.3281 62.1114C19.609 62.8334 19.2051 63.8127 19.2051 64.8338C19.2051 65.8549 19.609 66.8341 20.3281 67.5562C21.0471 68.2782 22.0223 68.6838 23.0392 68.6838H26.8733V80.2338C26.8804 82.6148 27.6213 84.9352 28.9943 86.8764C30.3673 88.8177 32.3051 90.2845 34.5416 91.0755V95.6339C34.5416 96.655 34.9456 97.6343 35.6646 98.3563C36.3836 99.0783 37.3589 99.4839 38.3758 99.4839C39.3926 99.4839 40.3679 99.0783 41.0869 98.3563C41.8059 97.6343 42.2099 96.655 42.2099 95.6339V91.7839H80.5512V95.6339C80.5512 96.655 80.9552 97.6343 81.6742 98.3563C82.3933 99.0783 83.3685 99.4839 84.3854 99.4839C85.4022 99.4839 86.3775 99.0783 87.0965 98.3563C87.8156 97.6343 88.2195 96.655 88.2195 95.6339V91.0755C90.456 90.2845 92.3938 88.8177 93.7668 86.8764C95.1398 84.9352 95.8807 82.6148 95.8878 80.2338V68.6838H99.7219C100.739 68.6838 101.714 68.2782 102.433 67.5562C103.152 66.8341 103.556 65.8549 103.556 64.8338C103.556 63.8127 103.152 62.8334 102.433 62.1114C101.714 61.3894 100.739 60.9838 99.7219 60.9838ZM51.5652 31.8777C52.6435 30.7962 54.1053 30.1888 55.6294 30.1888C57.1534 30.1888 58.6152 30.7962 59.6935 31.8777L61.0508 33.2367L52.9186 41.4026L51.5613 40.0436C51.0269 39.5072 50.6029 38.8704 50.3137 38.1696C50.0244 37.4687 49.8755 36.7174 49.8755 35.9587C49.8755 35.2 50.0244 34.4487 50.3137 33.7478C50.6029 33.0469 51.0269 32.4101 51.5613 31.8738L51.5652 31.8777ZM88.2195 80.2338C88.2195 81.2549 87.8156 82.2342 87.0965 82.9562C86.3775 83.6782 85.4022 84.0839 84.3854 84.0839H38.3758C37.3589 84.0839 36.3836 83.6782 35.6646 82.9562C34.9456 82.2342 34.5416 81.2549 34.5416 80.2338V68.6838H88.2195V80.2338Z" fill="#A89165"/>
</svg>
