<svg width="82" height="81" viewBox="0 0 82 81" fill="none" xmlns="http://www.w3.org/2000/svg">
<path d="M40.9992 53.9418C53.9073 53.9418 64.3714 43.4776 64.3714 30.5695C64.3714 17.6614 53.9073 7.19727 40.9992 7.19727C28.0911 7.19727 17.627 17.6614 17.627 30.5695C17.627 43.4776 28.0911 53.9418 40.9992 53.9418Z" stroke="#A89165" stroke-width="7"/>
<path d="M25.4772 50.6025L23.3503 58.3588C21.2535 66.0115 20.2051 69.8379 21.604 71.9314C22.0949 72.6659 22.7526 73.2536 23.5172 73.6442C25.6942 74.7527 29.0598 72.9998 35.7877 69.494C38.0247 68.3254 39.1466 67.7444 40.3352 67.6175C40.7771 67.5734 41.2223 67.5734 41.6641 67.6175C42.8528 67.7444 43.9713 68.3287 46.2117 69.494C52.9395 72.9998 56.3051 74.7527 58.4821 73.6442C59.2467 73.2536 59.9045 72.6659 60.3953 71.9314C61.7976 69.8379 60.7459 66.0115 58.649 58.3588L56.5222 50.6025" stroke="#A89165" stroke-width="7" stroke-linecap="round"/>
</svg>
