<svg width="88" height="88" viewBox="0 0 88 88" fill="none" xmlns="http://www.w3.org/2000/svg">
<path d="M54.5427 78.8501V50.0302C54.5427 49.0748 54.1631 48.1585 53.4875 47.4829C52.8119 46.8073 51.8956 46.4277 50.9402 46.4277H36.5302C35.5748 46.4277 34.6585 46.8073 33.9829 47.4829C33.3073 48.1585 32.9277 49.0748 32.9277 50.0302V78.8501" stroke="#A89165" stroke-width="7" stroke-linecap="round" stroke-linejoin="round"/>
<path d="M11.3125 39.2223C11.3122 38.1743 11.5407 37.1387 11.9818 36.188C12.4229 35.2373 13.0662 34.3943 13.8667 33.7177L39.0841 12.1064C40.3845 11.0073 42.0322 10.4043 43.7349 10.4043C45.4376 10.4043 47.0853 11.0073 48.3857 12.1064L73.6031 33.7177C74.4036 34.3943 75.0469 35.2373 75.488 36.188C75.9291 37.1387 76.1576 38.1743 76.1573 39.2223V71.6447C76.1573 73.5556 75.3982 75.3882 74.047 76.7394C72.6958 78.0906 70.8632 78.8497 68.9523 78.8497H18.5175C16.6066 78.8497 14.774 78.0906 13.4228 76.7394C12.0716 75.3882 11.3125 73.5556 11.3125 71.6447V39.2223Z" stroke="#A89165" stroke-width="7" stroke-linecap="round" stroke-linejoin="round"/>
</svg>
