<svg width="40" height="36" viewBox="0 0 40 36" fill="none" xmlns="http://www.w3.org/2000/svg">
<path d="M20 14.2222C20.9703 14.2222 21.9311 14.0512 22.8276 13.719C23.7241 13.3867 24.5386 12.8998 25.2247 12.2859C25.9109 11.672 26.4551 10.9432 26.8264 10.1411C27.1978 9.33898 27.3889 8.47929 27.3889 7.61111C27.3889 6.74293 27.1978 5.88324 26.8264 5.08115C26.4551 4.27905 25.9109 3.55025 25.2247 2.93635C24.5386 2.32245 23.7241 1.83548 22.8276 1.50324C21.9311 1.171 20.9703 1 20 1C18.0403 1 16.161 1.69653 14.7753 2.93635C13.3896 4.17617 12.6111 5.85774 12.6111 7.61111C12.6111 9.36449 13.3896 11.046 14.7753 12.2859C16.161 13.5257 18.0403 14.2222 20 14.2222ZM1 33.8667V35H39V33.8667C39 29.6356 39 27.52 38.0796 25.9031C37.27 24.4815 35.9782 23.3257 34.3893 22.6013C32.5822 21.7778 30.2178 21.7778 25.4889 21.7778H14.5111C9.78222 21.7778 7.41778 21.7778 5.61067 22.6013C4.02181 23.3257 2.73003 24.4815 1.92044 25.9031C1 27.52 1 29.6356 1 33.8667Z" stroke="white" stroke-width="2" stroke-linecap="round" stroke-linejoin="round"/>
</svg>
