<svg width="115" height="50" viewBox="0 0 115 50" fill="none" xmlns="http://www.w3.org/2000/svg">
<g clip-path="url(#clip0_85_2138)">
<path d="M46.7519 10.6718V10.9918C46.3892 11.0025 46.1119 11.0451 45.9199 11.1198C45.7386 11.1838 45.6159 11.3118 45.5519 11.5038C45.4879 11.6851 45.4559 11.9731 45.4559 12.3678V20.3038C45.4559 20.6878 45.4879 20.9758 45.5519 21.1678C45.6159 21.3598 45.7386 21.4878 45.9199 21.5518C46.1119 21.6158 46.3892 21.6585 46.7519 21.6798V21.9998C46.5066 21.9785 46.1972 21.9678 45.8239 21.9678C45.4612 21.9571 45.0932 21.9518 44.7199 21.9518C44.3039 21.9518 43.9146 21.9571 43.5519 21.9678C43.1892 21.9678 42.8959 21.9785 42.6719 21.9998V21.6798C43.0346 21.6585 43.3066 21.6158 43.4879 21.5518C43.6799 21.4878 43.8079 21.3598 43.8719 21.1678C43.9359 20.9758 43.9679 20.6878 43.9679 20.3038V12.3678C43.9679 11.9731 43.9359 11.6851 43.8719 11.5038C43.8079 11.3118 43.6799 11.1838 43.4879 11.1198C43.3066 11.0451 43.0346 11.0025 42.6719 10.9918V10.6718C42.8959 10.6825 43.1892 10.6931 43.5519 10.7038C43.9146 10.7145 44.3039 10.7198 44.7199 10.7198C45.0932 10.7198 45.4612 10.7145 45.8239 10.7038C46.1972 10.6931 46.5066 10.6825 46.7519 10.6718ZM53.1658 13.5358C53.5391 13.5358 53.8644 13.5891 54.1418 13.6958C54.4191 13.8025 54.6484 13.9518 54.8298 14.1438C55.0324 14.3571 55.1711 14.6345 55.2458 14.9758C55.3204 15.3171 55.3578 15.7385 55.3578 16.2398V20.5118C55.3578 20.9598 55.4484 21.2638 55.6298 21.4238C55.8218 21.5838 56.1364 21.6638 56.5738 21.6638V21.9998C56.3924 21.9891 56.1151 21.9785 55.7418 21.9678C55.3684 21.9465 55.0058 21.9358 54.6538 21.9358C54.3018 21.9358 53.9551 21.9465 53.6138 21.9678C53.2831 21.9785 53.0324 21.9891 52.8618 21.9998V21.6638C53.2458 21.6638 53.5178 21.5838 53.6778 21.4238C53.8378 21.2638 53.9178 20.9598 53.9178 20.5118V15.8878C53.9178 15.5571 53.8964 15.2531 53.8538 14.9758C53.8111 14.6985 53.7044 14.4745 53.5338 14.3038C53.3631 14.1331 53.0858 14.0478 52.7018 14.0478C52.2858 14.0478 51.9124 14.1758 51.5818 14.4318C51.2618 14.6878 51.0058 15.0398 50.8138 15.4878C50.6324 15.9251 50.5418 16.4158 50.5418 16.9598V20.5118C50.5418 20.9598 50.6218 21.2638 50.7818 21.4238C50.9418 21.5838 51.2138 21.6638 51.5978 21.6638V21.9998C51.4271 21.9891 51.1711 21.9785 50.8298 21.9678C50.4991 21.9465 50.1578 21.9358 49.8058 21.9358C49.4538 21.9358 49.0911 21.9465 48.7178 21.9678C48.3444 21.9785 48.0671 21.9891 47.8858 21.9998V21.6638C48.3231 21.6638 48.6324 21.5838 48.8138 21.4238C49.0058 21.2638 49.1018 20.9598 49.1018 20.5118V15.5038C49.1018 15.0238 49.0164 14.6718 48.8458 14.4478C48.6751 14.2131 48.3551 14.0958 47.8858 14.0958V13.7598C48.2271 13.7918 48.5578 13.8078 48.8778 13.8078C49.1871 13.8078 49.4804 13.7918 49.7578 13.7598C50.0458 13.7171 50.3071 13.6585 50.5418 13.5838V15.4718C50.8191 14.7785 51.1978 14.2825 51.6778 13.9838C52.1578 13.6851 52.6538 13.5358 53.1658 13.5358ZM57.9818 13.5358C58.3551 13.5358 58.6804 13.5891 58.9578 13.6958C59.2351 13.8025 59.4644 13.9518 59.6458 14.1438C59.8484 14.3571 59.9871 14.6345 60.0618 14.9758C60.1364 15.3171 60.1738 15.7385 60.1738 16.2398V20.5118C60.1738 20.9598 60.2644 21.2638 60.4458 21.4238C60.6378 21.5838 60.9524 21.6638 61.3898 21.6638V21.9998C61.2084 21.9891 60.9311 21.9785 60.5578 21.9678C60.1844 21.9465 59.8218 21.9358 59.4698 21.9358C59.1178 21.9358 58.7711 21.9465 58.4298 21.9678C58.0991 21.9785 57.8484 21.9891 57.6778 21.9998V21.6638C58.0618 21.6638 58.3338 21.5838 58.4938 21.4238C58.6538 21.2638 58.7338 20.9598 58.7338 20.5118V15.8878C58.7338 15.5571 58.7124 15.2531 58.6698 14.9758C58.6271 14.6985 58.5204 14.4745 58.3498 14.3038C58.1791 14.1331 57.9018 14.0478 57.5178 14.0478C57.1018 14.0478 56.7284 14.1758 56.3978 14.4318C56.0778 14.6878 55.8218 15.0345 55.6298 15.4718C55.4484 15.9091 55.3578 16.3998 55.3578 16.9438L55.3098 15.4558C55.5978 14.7198 55.9871 14.2185 56.4778 13.9518C56.9684 13.6745 57.4698 13.5358 57.9818 13.5358ZM64.6329 13.5838V23.4078C64.6329 23.8665 64.7662 24.1705 65.0329 24.3198C65.3102 24.4798 65.6889 24.5598 66.1689 24.5598V24.8958C65.9342 24.8851 65.6089 24.8691 65.1929 24.8478C64.7769 24.8371 64.3342 24.8318 63.8649 24.8318C63.5342 24.8318 63.2036 24.8371 62.8729 24.8478C62.5529 24.8691 62.3076 24.8851 62.1369 24.8958V24.5598C62.5209 24.5598 62.7929 24.4905 62.9529 24.3518C63.1129 24.2131 63.1929 23.9518 63.1929 23.5678V15.5038C63.1929 15.0238 63.1076 14.6718 62.9369 14.4478C62.7662 14.2131 62.4462 14.0958 61.9769 14.0958V13.7598C62.3182 13.7918 62.6489 13.8078 62.9689 13.8078C63.2782 13.8078 63.5716 13.7918 63.8489 13.7598C64.1369 13.7171 64.3982 13.6585 64.6329 13.5838ZM67.1929 13.5358C67.7582 13.5358 68.2649 13.6905 68.7129 13.9998C69.1609 14.2985 69.5129 14.7411 69.7689 15.3278C70.0356 15.9145 70.1689 16.6398 70.1689 17.5038C70.1689 18.0798 70.0996 18.6505 69.9609 19.2158C69.8222 19.7705 69.6036 20.2771 69.3049 20.7358C69.0169 21.1838 68.6382 21.5465 68.1689 21.8238C67.7102 22.0905 67.1556 22.2238 66.5049 22.2238C66.0036 22.2238 65.5662 22.1065 65.1929 21.8718C64.8302 21.6371 64.5849 21.3545 64.4569 21.0238L64.6169 20.7998C64.7662 21.0985 64.9796 21.3491 65.2569 21.5518C65.5449 21.7545 65.9022 21.8558 66.3289 21.8558C66.9262 21.8558 67.3902 21.6691 67.7209 21.2958C68.0516 20.9225 68.2809 20.4265 68.4089 19.8078C68.5476 19.1785 68.6169 18.4851 68.6169 17.7278C68.6169 16.8745 68.5476 16.1758 68.4089 15.6318C68.2702 15.0878 68.0622 14.6825 67.7849 14.4158C67.5076 14.1491 67.1662 14.0158 66.7609 14.0158C66.2382 14.0158 65.7636 14.2345 65.3369 14.6718C64.9102 15.0985 64.6382 15.7491 64.5209 16.6238L64.3289 16.3998C64.4462 15.4931 64.7662 14.7891 65.2889 14.2878C65.8222 13.7865 66.4569 13.5358 67.1929 13.5358ZM75.2738 13.5358C76.2124 13.5358 76.9431 13.8238 77.4658 14.3998C77.9991 14.9651 78.2658 15.8505 78.2658 17.0558H72.6178L72.6018 16.7518H76.7298C76.7511 16.2291 76.7084 15.7491 76.6018 15.3118C76.4951 14.8638 76.3244 14.5065 76.0898 14.2398C75.8658 13.9731 75.5724 13.8398 75.2098 13.8398C74.7191 13.8398 74.2818 14.0851 73.8978 14.5758C73.5244 15.0665 73.3004 15.8451 73.2258 16.9118L73.2738 16.9758C73.2524 17.1358 73.2364 17.3118 73.2258 17.5038C73.2151 17.6958 73.2098 17.8878 73.2098 18.0798C73.2098 18.8051 73.3271 19.4291 73.5618 19.9518C73.7964 20.4745 74.1004 20.8745 74.4738 21.1518C74.8578 21.4185 75.2524 21.5518 75.6578 21.5518C75.9778 21.5518 76.2818 21.5038 76.5698 21.4078C76.8578 21.3011 77.1244 21.1305 77.3698 20.8958C77.6151 20.6611 77.8284 20.3465 78.0098 19.9518L78.3298 20.0798C78.2124 20.4318 78.0204 20.7731 77.7538 21.1038C77.4871 21.4345 77.1511 21.7065 76.7458 21.9198C76.3404 22.1225 75.8711 22.2238 75.3378 22.2238C74.5698 22.2238 73.9084 22.0478 73.3538 21.6958C72.8098 21.3438 72.3884 20.8585 72.0898 20.2398C71.8018 19.6105 71.6578 18.8905 71.6578 18.0798C71.6578 17.1411 71.8071 16.3358 72.1058 15.6638C72.4044 14.9811 72.8258 14.4585 73.3698 14.0958C73.9138 13.7225 74.5484 13.5358 75.2738 13.5358ZM84.4555 13.5358C84.7435 13.5358 84.9942 13.5945 85.2075 13.7118C85.4315 13.8291 85.6022 13.9838 85.7195 14.1758C85.8475 14.3571 85.9115 14.5651 85.9115 14.7998C85.9115 15.0665 85.8262 15.3011 85.6555 15.5038C85.4955 15.7065 85.2769 15.8078 84.9995 15.8078C84.7755 15.8078 84.5782 15.7385 84.4075 15.5998C84.2369 15.4505 84.1515 15.2425 84.1515 14.9758C84.1515 14.7731 84.2049 14.6025 84.3115 14.4638C84.4289 14.3145 84.5569 14.1971 84.6955 14.1118C84.6209 14.0051 84.5089 13.9518 84.3595 13.9518C84.0289 13.9518 83.7249 14.0531 83.4475 14.2558C83.1702 14.4478 82.9355 14.6985 82.7435 15.0078C82.5515 15.3171 82.4022 15.6478 82.2955 15.9998C82.1889 16.3411 82.1355 16.6611 82.1355 16.9598V20.3518C82.1355 20.8745 82.2849 21.2265 82.5835 21.4078C82.8929 21.5785 83.3089 21.6638 83.8315 21.6638V21.9998C83.5862 21.9891 83.2395 21.9785 82.7915 21.9678C82.3435 21.9465 81.8689 21.9358 81.3675 21.9358C81.0049 21.9358 80.6422 21.9465 80.2795 21.9678C79.9275 21.9785 79.6609 21.9891 79.4795 21.9998V21.6638C79.9169 21.6638 80.2262 21.5838 80.4075 21.4238C80.5995 21.2638 80.6955 20.9598 80.6955 20.5118V15.5038C80.6955 15.0238 80.6102 14.6718 80.4395 14.4478C80.2689 14.2131 79.9489 14.0958 79.4795 14.0958V13.7598C79.8209 13.7918 80.1515 13.8078 80.4715 13.8078C80.7809 13.8078 81.0742 13.7918 81.3515 13.7598C81.6395 13.7171 81.9009 13.6585 82.1355 13.5838V15.5838C82.2529 15.2745 82.4182 14.9651 82.6315 14.6558C82.8555 14.3358 83.1222 14.0691 83.4315 13.8558C83.7409 13.6425 84.0822 13.5358 84.4555 13.5358ZM88.4285 9.75977C88.7059 9.75977 88.9459 9.8611 89.1485 10.0638C89.3512 10.2665 89.4525 10.5065 89.4525 10.7838C89.4525 11.0611 89.3512 11.3011 89.1485 11.5038C88.9459 11.7065 88.7059 11.8078 88.4285 11.8078C88.1512 11.8078 87.9112 11.7065 87.7085 11.5038C87.5059 11.3011 87.4045 11.0611 87.4045 10.7838C87.4045 10.5065 87.5059 10.2665 87.7085 10.0638C87.9112 9.8611 88.1512 9.75977 88.4285 9.75977ZM89.2605 13.5838V20.5118C89.2605 20.9598 89.3512 21.2638 89.5325 21.4238C89.7245 21.5838 90.0392 21.6638 90.4765 21.6638V21.9998C90.2952 21.9891 90.0179 21.9785 89.6445 21.9678C89.2819 21.9465 88.9139 21.9358 88.5405 21.9358C88.1779 21.9358 87.8099 21.9465 87.4365 21.9678C87.0632 21.9785 86.7859 21.9891 86.6045 21.9998V21.6638C87.0419 21.6638 87.3512 21.5838 87.5325 21.4238C87.7245 21.2638 87.8205 20.9598 87.8205 20.5118V15.5038C87.8205 15.0238 87.7352 14.6718 87.5645 14.4478C87.3939 14.2131 87.0739 14.0958 86.6045 14.0958V13.7598C86.9459 13.7918 87.2765 13.8078 87.5965 13.8078C87.9059 13.8078 88.1992 13.7918 88.4765 13.7598C88.7645 13.7171 89.0259 13.6585 89.2605 13.5838ZM98.556 13.5838V20.2718C98.556 20.7518 98.6414 21.1091 98.812 21.3438C98.9934 21.5678 99.3134 21.6798 99.772 21.6798V22.0158C99.4414 21.9838 99.1107 21.9678 98.78 21.9678C98.4707 21.9678 98.172 21.9838 97.884 22.0158C97.6067 22.0478 97.3507 22.1065 97.116 22.1918V20.3038C96.8494 20.9971 96.4707 21.4931 95.98 21.7918C95.5 22.0798 95.004 22.2238 94.492 22.2238C94.1187 22.2238 93.7934 22.1705 93.516 22.0638C93.2387 21.9571 93.0094 21.8078 92.828 21.6158C92.6254 21.4025 92.4867 21.1251 92.412 20.7838C92.3374 20.4425 92.3 20.0211 92.3 19.5198V15.5038C92.3 15.0238 92.2147 14.6718 92.044 14.4478C91.8734 14.2131 91.5534 14.0958 91.084 14.0958V13.7598C91.4254 13.7918 91.756 13.8078 92.076 13.8078C92.3854 13.8078 92.6787 13.7918 92.956 13.7598C93.244 13.7171 93.5054 13.6585 93.74 13.5838V19.8718C93.74 20.2025 93.7614 20.5065 93.804 20.7838C93.8467 21.0611 93.9534 21.2851 94.124 21.4558C94.2947 21.6265 94.572 21.7118 94.956 21.7118C95.372 21.7118 95.74 21.5838 96.06 21.3278C96.3907 21.0718 96.6467 20.7251 96.828 20.2878C97.02 19.8505 97.116 19.3598 97.116 18.8158V15.5038C97.116 15.0238 97.0307 14.6718 96.86 14.4478C96.6894 14.2131 96.3694 14.0958 95.9 14.0958V13.7598C96.2414 13.7918 96.572 13.8078 96.892 13.8078C97.2014 13.8078 97.4947 13.7918 97.772 13.7598C98.06 13.7171 98.3214 13.6585 98.556 13.5838ZM105.869 13.5358C106.242 13.5358 106.568 13.5891 106.845 13.6958C107.122 13.8025 107.352 13.9518 107.533 14.1438C107.736 14.3571 107.874 14.6345 107.949 14.9758C108.024 15.3171 108.061 15.7385 108.061 16.2398V20.5118C108.061 20.9598 108.152 21.2638 108.333 21.4238C108.525 21.5838 108.84 21.6638 109.277 21.6638V21.9998C109.096 21.9891 108.818 21.9785 108.445 21.9678C108.072 21.9465 107.709 21.9358 107.357 21.9358C107.005 21.9358 106.658 21.9465 106.317 21.9678C105.986 21.9785 105.736 21.9891 105.565 21.9998V21.6638C105.949 21.6638 106.221 21.5838 106.381 21.4238C106.541 21.2638 106.621 20.9598 106.621 20.5118V15.8878C106.621 15.5571 106.6 15.2531 106.557 14.9758C106.514 14.6985 106.408 14.4745 106.237 14.3038C106.066 14.1331 105.789 14.0478 105.405 14.0478C104.989 14.0478 104.616 14.1758 104.285 14.4318C103.965 14.6878 103.709 15.0398 103.517 15.4878C103.336 15.9251 103.245 16.4158 103.245 16.9598V20.5118C103.245 20.9598 103.325 21.2638 103.485 21.4238C103.645 21.5838 103.917 21.6638 104.301 21.6638V21.9998C104.13 21.9891 103.874 21.9785 103.533 21.9678C103.202 21.9465 102.861 21.9358 102.509 21.9358C102.157 21.9358 101.794 21.9465 101.421 21.9678C101.048 21.9785 100.77 21.9891 100.589 21.9998V21.6638C101.026 21.6638 101.336 21.5838 101.517 21.4238C101.709 21.2638 101.805 20.9598 101.805 20.5118V15.5038C101.805 15.0238 101.72 14.6718 101.549 14.4478C101.378 14.2131 101.058 14.0958 100.589 14.0958V13.7598C100.93 13.7918 101.261 13.8078 101.581 13.8078C101.89 13.8078 102.184 13.7918 102.461 13.7598C102.749 13.7171 103.01 13.6585 103.245 13.5838V15.4718C103.522 14.7785 103.901 14.2825 104.381 13.9838C104.861 13.6851 105.357 13.5358 105.869 13.5358ZM110.685 13.5358C111.058 13.5358 111.384 13.5891 111.661 13.6958C111.938 13.8025 112.168 13.9518 112.349 14.1438C112.552 14.3571 112.69 14.6345 112.765 14.9758C112.84 15.3171 112.877 15.7385 112.877 16.2398V20.5118C112.877 20.9598 112.968 21.2638 113.149 21.4238C113.341 21.5838 113.656 21.6638 114.093 21.6638V21.9998C113.912 21.9891 113.634 21.9785 113.261 21.9678C112.888 21.9465 112.525 21.9358 112.173 21.9358C111.821 21.9358 111.474 21.9465 111.133 21.9678C110.802 21.9785 110.552 21.9891 110.381 21.9998V21.6638C110.765 21.6638 111.037 21.5838 111.197 21.4238C111.357 21.2638 111.437 20.9598 111.437 20.5118V15.8878C111.437 15.5571 111.416 15.2531 111.373 14.9758C111.33 14.6985 111.224 14.4745 111.053 14.3038C110.882 14.1331 110.605 14.0478 110.221 14.0478C109.805 14.0478 109.432 14.1758 109.101 14.4318C108.781 14.6878 108.525 15.0345 108.333 15.4718C108.152 15.9091 108.061 16.3998 108.061 16.9438L108.013 15.4558C108.301 14.7198 108.69 14.2185 109.181 13.9518C109.672 13.6745 110.173 13.5358 110.685 13.5358ZM50.6559 31.6718C50.6132 32.0451 50.5812 32.4078 50.5599 32.7598C50.5492 33.1118 50.5439 33.3785 50.5439 33.5598C50.5439 33.7518 50.5492 33.9385 50.5599 34.1198C50.5706 34.2905 50.5812 34.4345 50.5919 34.5518H50.2239C50.1599 33.9225 50.0692 33.4265 49.9519 33.0638C49.8346 32.6905 49.6319 32.4291 49.3439 32.2798C49.0666 32.1198 48.6452 32.0398 48.0799 32.0398H46.7519C46.3892 32.0398 46.1119 32.0718 45.9199 32.1358C45.7386 32.1891 45.6159 32.3118 45.5519 32.5038C45.4879 32.6851 45.4559 32.9731 45.4559 33.3678V41.3038C45.4559 41.6878 45.4879 41.9758 45.5519 42.1678C45.6159 42.3598 45.7386 42.4878 45.9199 42.5518C46.1119 42.6051 46.3892 42.6318 46.7519 42.6318H47.9199C48.5919 42.6318 49.0986 42.5411 49.4399 42.3598C49.7919 42.1785 50.0426 41.8851 50.1919 41.4798C50.3519 41.0638 50.4692 40.5038 50.5439 39.7998H50.9119C50.8799 40.0878 50.8639 40.4718 50.8639 40.9518C50.8639 41.1545 50.8692 41.4478 50.8799 41.8318C50.9012 42.2051 50.9332 42.5945 50.9759 42.9998C50.4319 42.9785 49.8186 42.9678 49.1359 42.9678C48.4532 42.9571 47.8452 42.9518 47.3119 42.9518C47.0772 42.9518 46.7732 42.9518 46.3999 42.9518C46.0372 42.9518 45.6426 42.9571 45.2159 42.9678C44.7892 42.9678 44.3572 42.9731 43.9199 42.9838C43.4826 42.9838 43.0666 42.9891 42.6719 42.9998V42.6798C43.0346 42.6585 43.3066 42.6158 43.4879 42.5518C43.6799 42.4878 43.8079 42.3598 43.8719 42.1678C43.9359 41.9758 43.9679 41.6878 43.9679 41.3038V33.3678C43.9679 32.9731 43.9359 32.6851 43.8719 32.5038C43.8079 32.3118 43.6799 32.1838 43.4879 32.1198C43.3066 32.0451 43.0346 32.0025 42.6719 31.9918V31.6718C43.0666 31.6825 43.4826 31.6931 43.9199 31.7038C44.3572 31.7038 44.7892 31.7091 45.2159 31.7198C45.6426 31.7198 46.0372 31.7198 46.3999 31.7198C46.7732 31.7198 47.0772 31.7198 47.3119 31.7198C47.8026 31.7198 48.3572 31.7198 48.9759 31.7198C49.6052 31.7091 50.1652 31.6931 50.6559 31.6718ZM47.9039 37.1438C47.9039 37.1438 47.9039 37.1971 47.9039 37.3038C47.9039 37.4105 47.9039 37.4638 47.9039 37.4638H44.9759C44.9759 37.4638 44.9759 37.4105 44.9759 37.3038C44.9759 37.1971 44.9759 37.1438 44.9759 37.1438H47.9039ZM48.3679 35.0318C48.3252 35.6398 48.3039 36.1038 48.3039 36.4238C48.3146 36.7438 48.3199 37.0371 48.3199 37.3038C48.3199 37.5705 48.3252 37.8638 48.3359 38.1838C48.3466 38.5038 48.3732 38.9678 48.4159 39.5758H48.0479C48.0052 39.2345 47.9519 38.9038 47.8879 38.5838C47.8346 38.2531 47.7066 37.9865 47.5039 37.7838C47.3119 37.5705 46.9812 37.4638 46.5119 37.4638V37.1438C46.8639 37.1438 47.1306 37.0745 47.3119 36.9358C47.5039 36.7865 47.6426 36.5998 47.7279 36.3758C47.8132 36.1518 47.8719 35.9225 47.9039 35.6878C47.9359 35.4425 47.9679 35.2238 47.9999 35.0318H48.3679ZM55.0779 34.5358C55.5046 34.5358 55.8672 34.6051 56.1659 34.7438C56.4646 34.8825 56.6832 35.0105 56.8219 35.1278C57.1739 35.4158 57.3872 35.2238 57.4619 34.5518H57.8299C57.8086 34.8505 57.7926 35.2078 57.7819 35.6238C57.7712 36.0291 57.7659 36.5785 57.7659 37.2718H57.3979C57.3339 36.8771 57.2219 36.4931 57.0619 36.1198C56.9126 35.7465 56.6886 35.4425 56.3899 35.2078C56.0912 34.9625 55.7019 34.8398 55.2219 34.8398C54.8486 34.8398 54.5339 34.9465 54.2779 35.1598C54.0326 35.3625 53.9099 35.6665 53.9099 36.0718C53.9099 36.3918 54.0059 36.6691 54.1979 36.9038C54.3899 37.1278 54.6406 37.3411 54.9499 37.5438C55.2592 37.7358 55.5952 37.9491 55.9579 38.1838C56.3632 38.4398 56.7312 38.7011 57.0619 38.9678C57.3926 39.2345 57.6539 39.5278 57.8459 39.8478C58.0486 40.1678 58.1499 40.5465 58.1499 40.9838C58.1499 41.4745 58.0219 41.8851 57.7659 42.2158C57.5099 42.5465 57.1739 42.7971 56.7579 42.9678C56.3526 43.1385 55.9046 43.2238 55.4139 43.2238C55.1792 43.2238 54.9552 43.2025 54.7419 43.1598C54.5392 43.1278 54.3419 43.0745 54.1499 42.9998C54.0432 42.9465 53.9312 42.8825 53.8139 42.8078C53.7072 42.7331 53.6006 42.6531 53.4939 42.5678C53.3872 42.4825 53.2912 42.4878 53.2059 42.5838C53.1206 42.6691 53.0566 42.8451 53.0139 43.1118H52.6459C52.6672 42.7705 52.6832 42.3545 52.6939 41.8638C52.7046 41.3731 52.7099 40.7225 52.7099 39.9118H53.0779C53.1526 40.5091 53.2592 41.0318 53.3979 41.4798C53.5366 41.9278 53.7552 42.2798 54.0539 42.5358C54.3526 42.7811 54.7686 42.9038 55.3019 42.9038C55.5152 42.9038 55.7286 42.8558 55.9419 42.7598C56.1659 42.6638 56.3526 42.5038 56.5019 42.2798C56.6512 42.0558 56.7259 41.7571 56.7259 41.3838C56.7259 40.9145 56.5552 40.5305 56.2139 40.2318C55.8726 39.9331 55.4406 39.6185 54.9179 39.2878C54.5339 39.0425 54.1712 38.7971 53.8299 38.5518C53.4992 38.3065 53.2272 38.0291 53.0139 37.7198C52.8112 37.4105 52.7099 37.0371 52.7099 36.5998C52.7099 36.1198 52.8166 35.7305 53.0299 35.4318C53.2539 35.1225 53.5472 34.8985 53.9099 34.7598C54.2726 34.6105 54.6619 34.5358 55.0779 34.5358ZM61.9462 32.1038V34.7758H64.3142V35.0958H61.9462V41.2878C61.9462 41.7891 62.0368 42.1411 62.2182 42.3438C62.3995 42.5465 62.6502 42.6478 62.9702 42.6478C63.2902 42.6478 63.5675 42.5198 63.8022 42.2638C64.0368 41.9971 64.2395 41.5545 64.4102 40.9358L64.7302 41.0158C64.6235 41.6345 64.4102 42.1571 64.0902 42.5838C63.7808 43.0105 63.3008 43.2238 62.6502 43.2238C62.2875 43.2238 61.9888 43.1758 61.7542 43.0798C61.5195 42.9945 61.3115 42.8665 61.1302 42.6958C60.8955 42.4505 60.7302 42.1571 60.6342 41.8158C60.5488 41.4745 60.5062 41.0211 60.5062 40.4558V35.0958H58.9702V34.7758H60.5062V32.3278C60.7728 32.3171 61.0288 32.2958 61.2742 32.2638C61.5195 32.2318 61.7435 32.1785 61.9462 32.1038ZM67.2984 43.1118C66.8611 43.1118 66.4824 43.0318 66.1624 42.8718C65.8424 42.7011 65.5971 42.4665 65.4264 42.1678C65.2664 41.8691 65.1864 41.5225 65.1864 41.1278C65.1864 40.6585 65.2931 40.2745 65.5064 39.9758C65.7304 39.6771 66.0131 39.4371 66.3544 39.2558C66.6957 39.0745 67.0531 38.9251 67.4264 38.8078C67.8104 38.6798 68.1731 38.5625 68.5144 38.4558C68.8557 38.3385 69.1331 38.2051 69.3464 38.0558C69.5704 37.9065 69.6824 37.7091 69.6824 37.4638V36.4718C69.6824 36.0238 69.6131 35.6825 69.4744 35.4478C69.3464 35.2131 69.1704 35.0585 68.9464 34.9838C68.7224 34.8985 68.4717 34.8558 68.1944 34.8558C67.9277 34.8558 67.6397 34.8931 67.3304 34.9678C67.0317 35.0425 66.7917 35.1971 66.6104 35.4318C66.8131 35.4745 66.9891 35.5811 67.1384 35.7518C67.2877 35.9225 67.3624 36.1411 67.3624 36.4078C67.3624 36.6745 67.2771 36.8878 67.1064 37.0478C66.9357 37.1971 66.7171 37.2718 66.4504 37.2718C66.1411 37.2718 65.9117 37.1758 65.7624 36.9838C65.6237 36.7811 65.5544 36.5571 65.5544 36.3118C65.5544 36.0345 65.6237 35.8105 65.7624 35.6398C65.9011 35.4691 66.0771 35.3091 66.2904 35.1598C66.5357 34.9891 66.8504 34.8451 67.2344 34.7278C67.6291 34.5998 68.0717 34.5358 68.5624 34.5358C68.9997 34.5358 69.3731 34.5891 69.6824 34.6958C69.9917 34.7918 70.2477 34.9358 70.4504 35.1278C70.7277 35.3838 70.9091 35.6985 70.9944 36.0718C71.0797 36.4345 71.1224 36.8718 71.1224 37.3838V41.8318C71.1224 42.0985 71.1597 42.2905 71.2344 42.4078C71.3197 42.5251 71.4477 42.5838 71.6184 42.5838C71.7357 42.5838 71.8477 42.5571 71.9544 42.5038C72.0611 42.4505 72.1891 42.3651 72.3384 42.2478L72.5144 42.5198C72.2904 42.6905 72.0771 42.8345 71.8744 42.9518C71.6717 43.0585 71.3997 43.1118 71.0584 43.1118C70.7491 43.1118 70.4931 43.0585 70.2904 42.9518C70.0877 42.8451 69.9331 42.6905 69.8264 42.4878C69.7304 42.2745 69.6824 42.0078 69.6824 41.6878C69.3944 42.1678 69.0477 42.5251 68.6424 42.7598C68.2477 42.9945 67.7997 43.1118 67.2984 43.1118ZM67.8744 42.4718C68.2264 42.4718 68.5517 42.3705 68.8504 42.1678C69.1597 41.9651 69.4371 41.6611 69.6824 41.2558V38.1198C69.5544 38.3011 69.3677 38.4558 69.1224 38.5838C68.8771 38.7011 68.6104 38.8238 68.3224 38.9518C68.0344 39.0691 67.7571 39.2131 67.4904 39.3838C67.2344 39.5438 67.0211 39.7571 66.8504 40.0238C66.6797 40.2905 66.5944 40.6371 66.5944 41.0638C66.5944 41.4905 66.7064 41.8318 66.9304 42.0878C67.1651 42.3438 67.4797 42.4718 67.8744 42.4718ZM75.5712 32.1038V34.7758H77.9392V35.0958H75.5712V41.2878C75.5712 41.7891 75.6618 42.1411 75.8432 42.3438C76.0245 42.5465 76.2752 42.6478 76.5952 42.6478C76.9152 42.6478 77.1925 42.5198 77.4272 42.2638C77.6618 41.9971 77.8645 41.5545 78.0352 40.9358L78.3552 41.0158C78.2485 41.6345 78.0352 42.1571 77.7152 42.5838C77.4058 43.0105 76.9258 43.2238 76.2752 43.2238C75.9125 43.2238 75.6138 43.1758 75.3792 43.0798C75.1445 42.9945 74.9365 42.8665 74.7552 42.6958C74.5205 42.4505 74.3552 42.1571 74.2592 41.8158C74.1738 41.4745 74.1312 41.0211 74.1312 40.4558V35.0958H72.5952V34.7758H74.1312V32.3278C74.3978 32.3171 74.6538 32.2958 74.8992 32.2638C75.1445 32.2318 75.3685 32.1785 75.5712 32.1038ZM82.5394 34.5358C83.4781 34.5358 84.2087 34.8238 84.7314 35.3998C85.2647 35.9651 85.5314 36.8505 85.5314 38.0558H79.8834L79.8674 37.7518H83.9954C84.0167 37.2291 83.9741 36.7491 83.8674 36.3118C83.7607 35.8638 83.5901 35.5065 83.3554 35.2398C83.1314 34.9731 82.8381 34.8398 82.4754 34.8398C81.9847 34.8398 81.5474 35.0851 81.1634 35.5758C80.7901 36.0665 80.5661 36.8451 80.4914 37.9118L80.5394 37.9758C80.5181 38.1358 80.5021 38.3118 80.4914 38.5038C80.4807 38.6958 80.4754 38.8878 80.4754 39.0798C80.4754 39.8051 80.5927 40.4291 80.8274 40.9518C81.0621 41.4745 81.3661 41.8745 81.7394 42.1518C82.1234 42.4185 82.5181 42.5518 82.9234 42.5518C83.2434 42.5518 83.5474 42.5038 83.8354 42.4078C84.1234 42.3011 84.3901 42.1305 84.6354 41.8958C84.8807 41.6611 85.0941 41.3465 85.2754 40.9518L85.5954 41.0798C85.4781 41.4318 85.2861 41.7731 85.0194 42.1038C84.7527 42.4345 84.4167 42.7065 84.0114 42.9198C83.6061 43.1225 83.1367 43.2238 82.6034 43.2238C81.8354 43.2238 81.1741 43.0478 80.6194 42.6958C80.0754 42.3438 79.6541 41.8585 79.3554 41.2398C79.0674 40.6105 78.9234 39.8905 78.9234 39.0798C78.9234 38.1411 79.0727 37.3358 79.3714 36.6638C79.6701 35.9811 80.0914 35.4585 80.6354 35.0958C81.1794 34.7225 81.8141 34.5358 82.5394 34.5358ZM89.6092 34.5358C90.0358 34.5358 90.3985 34.6051 90.6972 34.7438C90.9958 34.8825 91.2145 35.0105 91.3532 35.1278C91.7052 35.4158 91.9185 35.2238 91.9932 34.5518H92.3612C92.3398 34.8505 92.3238 35.2078 92.3132 35.6238C92.3025 36.0291 92.2972 36.5785 92.2972 37.2718H91.9292C91.8652 36.8771 91.7532 36.4931 91.5932 36.1198C91.4438 35.7465 91.2198 35.4425 90.9212 35.2078C90.6225 34.9625 90.2332 34.8398 89.7532 34.8398C89.3798 34.8398 89.0652 34.9465 88.8092 35.1598C88.5638 35.3625 88.4412 35.6665 88.4412 36.0718C88.4412 36.3918 88.5372 36.6691 88.7292 36.9038C88.9212 37.1278 89.1718 37.3411 89.4812 37.5438C89.7905 37.7358 90.1265 37.9491 90.4892 38.1838C90.8945 38.4398 91.2625 38.7011 91.5932 38.9678C91.9238 39.2345 92.1852 39.5278 92.3772 39.8478C92.5798 40.1678 92.6812 40.5465 92.6812 40.9838C92.6812 41.4745 92.5532 41.8851 92.2972 42.2158C92.0412 42.5465 91.7052 42.7971 91.2892 42.9678C90.8838 43.1385 90.4358 43.2238 89.9452 43.2238C89.7105 43.2238 89.4865 43.2025 89.2732 43.1598C89.0705 43.1278 88.8732 43.0745 88.6812 42.9998C88.5745 42.9465 88.4625 42.8825 88.3452 42.8078C88.2385 42.7331 88.1318 42.6531 88.0252 42.5678C87.9185 42.4825 87.8225 42.4878 87.7372 42.5838C87.6518 42.6691 87.5878 42.8451 87.5452 43.1118H87.1772C87.1985 42.7705 87.2145 42.3545 87.2252 41.8638C87.2358 41.3731 87.2412 40.7225 87.2412 39.9118H87.6092C87.6838 40.5091 87.7905 41.0318 87.9292 41.4798C88.0678 41.9278 88.2865 42.2798 88.5852 42.5358C88.8838 42.7811 89.2998 42.9038 89.8332 42.9038C90.0465 42.9038 90.2598 42.8558 90.4732 42.7598C90.6972 42.6638 90.8838 42.5038 91.0332 42.2798C91.1825 42.0558 91.2572 41.7571 91.2572 41.3838C91.2572 40.9145 91.0865 40.5305 90.7452 40.2318C90.4038 39.9331 89.9718 39.6185 89.4492 39.2878C89.0652 39.0425 88.7025 38.7971 88.3612 38.5518C88.0305 38.3065 87.7585 38.0291 87.5452 37.7198C87.3425 37.4105 87.2412 37.0371 87.2412 36.5998C87.2412 36.1198 87.3478 35.7305 87.5612 35.4318C87.7852 35.1225 88.0785 34.8985 88.4412 34.7598C88.8038 34.6105 89.1932 34.5358 89.6092 34.5358Z" fill="white"/>
<path d="M0 1H39.12" stroke="white" stroke-width="2" stroke-miterlimit="10"/>
<path d="M3.68359 6H36.043" stroke="white" stroke-width="2" stroke-miterlimit="10"/>
<path d="M11.8691 42.9302V10.9302" stroke="white" stroke-width="2" stroke-miterlimit="10"/>
<path d="M19.9688 42.9302V10.9302" stroke="white" stroke-width="2" stroke-miterlimit="10"/>
<path d="M28.0684 42.9302V10.9302" stroke="white" stroke-width="2" stroke-miterlimit="10"/>
<path d="M3.68359 48H36.0357" stroke="white" stroke-width="3" stroke-miterlimit="10"/>
</g>
<defs>
<clipPath id="clip0_85_2138">
<rect width="115" height="50" fill="white"/>
</clipPath>
</defs>
</svg>
