<svg width="17" height="17" viewBox="0 0 17 17" fill="none" xmlns="http://www.w3.org/2000/svg">
<path d="M8.49935 9.91667C10.0619 9.91667 11.3327 8.64592 11.3327 7.08333C11.3327 5.52075 10.0619 4.25 8.49935 4.25C6.93677 4.25 5.66602 5.52075 5.66602 7.08333C5.66602 8.64592 6.93677 9.91667 8.49935 9.91667ZM8.49935 5.66667C9.28064 5.66667 9.91602 6.30204 9.91602 7.08333C9.91602 7.86463 9.28064 8.5 8.49935 8.5C7.71806 8.5 7.08268 7.86463 7.08268 7.08333C7.08268 6.30204 7.71806 5.66667 8.49935 5.66667Z" fill="#888888"/>
<path d="M8.08988 15.4519C8.20984 15.5373 8.35345 15.5832 8.50071 15.5832C8.64798 15.5832 8.79158 15.5373 8.91155 15.4519C9.12688 15.2996 14.1879 11.6453 14.1674 7.08366C14.1674 3.9592 11.6252 1.41699 8.50071 1.41699C5.37626 1.41699 2.83405 3.9592 2.83405 7.08012C2.81351 11.6453 7.87455 15.2996 8.08988 15.4519ZM8.50071 2.83366C10.8446 2.83366 12.7507 4.73978 12.7507 7.0872C12.7656 10.2308 9.64255 13.0535 8.50071 13.9793C7.35959 13.0528 4.23584 10.2294 4.25071 7.08366C4.25071 4.73978 6.15684 2.83366 8.50071 2.83366Z" fill="#888888"/>
</svg>
